<svg width="368" height="309" viewBox="0 0 368 309" fill="none" xmlns="http://www.w3.org/2000/svg">
<path d="M312.8 0L55.2 0C24.7508 0.0752179 0.088872 20.9481 0 46.7192L0 184.697L71.392 124.273C93.2414 106.675 127.559 106.675 149.408 124.273L202.242 169.232L218.572 155.411C240.163 137.243 275.037 137.243 296.628 155.411L368 215.818V46.7192C367.911 20.9481 343.249 0.0752179 312.8 0Z" fill="#F6A018" fill-opacity="0.37"/>
<path d="M149.408 121.187C127.559 103.589 93.2415 103.589 71.392 121.187L0 181.61L0 261.656C0.089056 287.426 24.7509 308.299 55.2 308.375H312.8C327.798 308.369 342.147 303.197 352.544 294.047L149.408 121.187Z" fill="#F6A018"/>
<path d="M367.999 215.817L296.627 155.411C275.036 137.243 240.163 137.243 218.571 155.411L202.241 169.232L352.463 297.064C362.438 288.425 368.016 276.821 367.999 264.742V215.817Z" fill="#F6A018" fill-opacity="0.71"/>
</svg>
