<svg width="845" height="632" viewBox="0 0 845 632" fill="none" xmlns="http://www.w3.org/2000/svg">
<g clip-path="url(#clip0_3_476)">
<path d="M839.462 40.8748H300.98C300.421 40.8624 299.888 40.6314 299.496 40.2311C299.105 39.8309 298.886 39.2933 298.886 38.7334C298.886 38.1736 299.105 37.636 299.496 37.2357C299.888 36.8355 300.421 36.6044 300.98 36.592H839.462C840.021 36.6044 840.554 36.8355 840.946 37.2357C841.337 37.636 841.556 38.1736 841.556 38.7334C841.556 39.2933 841.337 39.8309 840.946 40.2311C840.554 40.6314 840.021 40.8624 839.462 40.8748Z" fill="#E6E6E6"/>
<path d="M337.635 25.6585C344.566 25.6585 350.185 19.9146 350.185 12.8292C350.185 5.74384 344.566 0 337.635 0C330.704 0 325.086 5.74384 325.086 12.8292C325.086 19.9146 330.704 25.6585 337.635 25.6585Z" fill="#3F3D56"/>
<path d="M380.988 25.6585C387.919 25.6585 393.538 19.9146 393.538 12.8292C393.538 5.74384 387.919 0 380.988 0C374.057 0 368.439 5.74384 368.439 12.8292C368.439 19.9146 374.057 25.6585 380.988 25.6585Z" fill="#3F3D56"/>
<path d="M424.341 25.6585C431.272 25.6585 436.891 19.9146 436.891 12.8292C436.891 5.74384 431.272 0 424.341 0C417.411 0 411.792 5.74384 411.792 12.8292C411.792 19.9146 417.411 25.6585 424.341 25.6585Z" fill="#3F3D56"/>
<path d="M813.356 3.17236H782.565C781.956 3.18618 781.376 3.43779 780.951 3.87334C780.525 4.30888 780.286 4.89378 780.286 5.50287C780.286 6.11196 780.525 6.69685 780.951 7.1324C781.376 7.56795 781.956 7.81954 782.565 7.83336H813.356C813.969 7.82513 814.554 7.57599 814.984 7.13983C815.414 6.70367 815.656 6.11559 815.656 5.50287C815.656 4.89015 815.414 4.30207 814.984 3.86591C814.554 3.42975 813.969 3.18059 813.356 3.17236Z" fill="#3F3D56"/>
<path d="M813.356 11.9248H782.565C781.955 11.9383 781.376 12.1898 780.95 12.6254C780.524 13.0609 780.285 13.646 780.285 14.2552C780.285 14.8645 780.524 15.4495 780.95 15.8851C781.376 16.3207 781.955 16.5721 782.565 16.5856H813.356C813.969 16.5773 814.553 16.3281 814.984 15.892C815.414 15.4559 815.655 14.8679 815.655 14.2552C815.655 13.6426 815.414 13.0546 814.984 12.6184C814.553 12.1823 813.969 11.9331 813.356 11.9248Z" fill="#3F3D56"/>
<path d="M813.356 20.6772H782.565C781.956 20.6911 781.376 20.9427 780.951 21.3782C780.525 21.8138 780.286 22.3986 780.286 23.0077C780.286 23.6168 780.525 24.2017 780.951 24.6373C781.376 25.0728 781.956 25.3244 782.565 25.3382H813.356C813.969 25.33 814.554 25.0809 814.984 24.6447C815.414 24.2085 815.656 23.6205 815.656 23.0077C815.656 22.395 815.414 21.8069 814.984 21.3708C814.554 20.9346 813.969 20.6855 813.356 20.6772Z" fill="#3F3D56"/>
<path d="M395.812 260.929H613.063C613.328 260.929 613.582 261.035 613.77 261.222C613.957 261.41 614.063 261.664 614.063 261.929V388.253C614.063 388.518 613.957 388.772 613.77 388.96C613.582 389.147 613.328 389.253 613.063 389.253H395.812V260.929Z" fill="#F9D783"/>
<path d="M612.807 389.935L395.526 261.898L396.098 259.96L613.38 387.997C613.637 388.073 613.853 388.248 613.981 388.484C614.109 388.719 614.139 388.996 614.063 389.253C614.025 389.38 613.963 389.498 613.879 389.602C613.796 389.705 613.693 389.79 613.576 389.854C613.46 389.917 613.332 389.957 613.2 389.971C613.068 389.985 612.935 389.973 612.807 389.935Z" fill="white"/>
<path d="M396.098 390.222L395.526 388.284L612.807 260.246C612.935 260.209 613.068 260.197 613.2 260.211C613.332 260.225 613.46 260.265 613.576 260.328C613.693 260.391 613.796 260.477 613.879 260.58C613.963 260.683 614.025 260.802 614.063 260.929C614.138 261.186 614.109 261.463 613.981 261.698C613.853 261.934 613.637 262.108 613.38 262.184L396.098 390.222Z" fill="white"/>
<path d="M588.389 134.56H421.241C418.629 134.56 416.511 136.677 416.511 139.29V139.29C416.511 141.903 418.629 144.021 421.241 144.021H588.389C591.001 144.021 593.119 141.903 593.119 139.29C593.119 136.677 591.001 134.56 588.389 134.56Z" fill="#F9D783"/>
<path d="M610.859 164.091H398.771C396.159 164.091 394.041 166.209 394.041 168.821C394.041 171.434 396.159 173.552 398.771 173.552H610.859C613.471 173.552 615.589 171.434 615.589 168.821C615.589 166.209 613.471 164.091 610.859 164.091Z" fill="#F9D783"/>
<path d="M610.859 193.622H398.771C396.159 193.622 394.041 195.74 394.041 198.353C394.041 200.965 396.159 203.083 398.771 203.083H610.859C613.471 203.083 615.589 200.965 615.589 198.353C615.589 195.74 613.471 193.622 610.859 193.622Z" fill="#F6A018"/>
<path d="M811.975 293.314C811.967 311.133 806.424 328.509 796.113 343.042C785.802 357.574 771.232 368.545 754.416 374.438C753.684 374.701 752.952 374.94 752.212 375.17C734.944 380.691 716.373 380.608 699.154 374.935C681.936 369.262 666.954 358.288 656.35 343.584C645.746 328.88 640.064 311.199 640.117 293.07C640.17 274.942 645.955 257.294 656.645 242.652C667.335 228.011 682.382 217.125 699.633 211.553C716.884 205.98 735.455 206.007 752.691 211.628C769.926 217.249 784.942 228.178 795.59 242.85C806.238 257.522 811.973 275.185 811.975 293.314V293.314Z" fill="#F9D783"/>
<path d="M610.82 204.981C610.729 206.035 610.869 207.097 611.233 208.091C611.596 209.085 612.172 209.987 612.922 210.734C613.671 211.481 614.576 212.055 615.571 212.415C616.566 212.775 617.628 212.912 618.682 212.817L629.264 236.264L636.408 224.966L625.265 204.432C624.988 202.672 624.074 201.074 622.698 199.943C621.322 198.811 619.579 198.223 617.799 198.291C616.018 198.358 614.324 199.077 613.038 200.31C611.752 201.543 610.963 203.205 610.82 204.981Z" fill="#FFB6B6"/>
<path d="M715.098 293.282C714.944 292.589 714.748 291.907 714.51 291.238C712.993 286.928 709.904 283.351 705.862 281.221C705.766 281.166 705.663 281.11 705.567 281.062L657.229 256.535L652.94 248.174L635.613 214.417L631.365 215.682L621.325 218.666L621.094 218.73L637.737 274.738L641.556 277.665L684.811 310.745L686.219 311.827C689.696 314.481 694.01 315.8 698.377 315.543C702.743 315.286 706.873 313.471 710.015 310.427C710.662 309.806 711.261 309.136 711.805 308.422C713.434 306.296 714.574 303.837 715.143 301.22C715.712 298.603 715.697 295.893 715.098 293.282Z" fill="#F6A018"/>
<path d="M741.973 354.796L741.718 345.567L740.986 318.804C743.636 301.675 745.513 299.774 732.736 288.063C732.248 287.959 731.787 287.753 731.383 287.46C730.979 287.167 730.64 286.792 730.389 286.361C729.228 283.99 732.02 279.964 729.61 273.767L710.588 274.857L705.862 281.221L686.848 306.839C686.103 308.105 685.423 309.409 684.811 310.745C676.673 328.422 687.707 337.818 688.566 339.433L693.833 356.021L696.737 372.107L697.676 374.343L700.325 375.313C717.225 380.591 735.341 380.541 752.212 375.17C749.373 368.105 745.948 361.29 741.973 354.796Z" fill="#F6A018"/>
<path d="M778.815 419.855C779.246 418.888 779.46 417.839 779.441 416.781C779.422 415.723 779.172 414.682 778.707 413.731C778.243 412.78 777.575 411.943 776.752 411.278C775.929 410.613 774.97 410.136 773.943 409.882L771.597 384.264L761.155 392.611L764.983 415.658C764.671 417.412 765.012 419.22 765.943 420.739C766.874 422.258 768.33 423.383 770.035 423.9C771.74 424.418 773.576 424.292 775.194 423.546C776.812 422.8 778.101 421.487 778.815 419.855L778.815 419.855Z" fill="#FFB6B6"/>
<path d="M742.434 294.245C741.069 292.18 739.297 290.415 737.226 289.06C735.154 287.704 732.828 286.786 730.389 286.361C729.334 286.17 728.264 286.074 727.191 286.074C723.617 286.075 720.122 287.129 717.143 289.106C716.198 289.729 715.316 290.443 714.51 291.238C712.79 292.903 711.415 294.891 710.464 297.088C709.513 299.285 709.004 301.648 708.966 304.042C708.929 306.436 709.363 308.813 710.245 311.039C711.126 313.265 712.438 315.295 714.104 317.014L741.718 345.567L751.782 355.973L754.416 374.438L758.465 402.848L762.888 403.039L773.358 403.501L773.597 403.509L775.339 363.698L776.15 345.138L742.434 294.245Z" fill="#F6A018"/>
<path d="M704.698 230.097C697.973 243.353 702.366 258.707 714.846 266.781C728.341 275.512 745.862 273.6 751.529 256.633C757.84 237.739 752.656 229.633 741.382 219.95C728.17 208.602 711.965 215.775 704.698 230.097Z" fill="#2F2E41"/>
<path d="M737.804 259.626C734.38 264.112 729.316 267.056 723.723 267.811C718.13 268.565 712.467 267.068 707.977 263.65C703.487 260.231 700.538 255.169 699.778 249.578C699.017 243.986 700.508 238.321 703.922 233.827L704.107 233.584C707.595 229.219 712.659 226.399 718.207 225.734C723.755 225.068 729.342 226.61 733.763 230.027C738.185 233.444 741.085 238.462 741.84 243.998C742.595 249.535 741.143 255.146 737.798 259.622L737.804 259.626Z" fill="#FFB6B6"/>
<path d="M698.181 227.951C701.641 231.244 705.859 233.634 710.462 234.91C711.385 233.843 712.479 232.936 713.699 232.228C713.115 233.443 712.715 234.738 712.511 236.071C714.564 240.332 722.949 243.394 730.963 246.526L741.577 227.794L727.528 219.833C716.239 212.028 702.949 215.359 698.181 227.951Z" fill="#2F2E41"/>
<path d="M749.584 219.973C750.608 219.596 751.711 219.481 752.792 219.638C753.872 219.796 754.896 220.222 755.77 220.877C757.48 222.177 758.863 223.859 759.808 225.789C761.527 228.911 762.761 232.276 763.47 235.768C764.076 238.79 763.973 242.442 761.262 244.019C759 245.335 755.766 244.506 753.687 242.751C751.76 240.908 750.299 238.635 749.422 236.117C748.408 233.708 747.449 231.209 745.646 229.208L747.519 230.082C746.927 228.285 746.651 226.399 746.704 224.507C746.746 223.566 747.035 222.652 747.54 221.857C748.045 221.061 748.75 220.412 749.584 219.973Z" fill="#2F2E41"/>
<path d="M725.284 222.428L740.357 230.969C744.432 233.278 747.424 237.112 748.673 241.627C749.922 246.142 749.326 250.968 747.016 255.044C743.652 260.98 738.196 265.448 731.713 267.576C725.231 269.703 718.188 269.337 711.961 266.549L725.734 254.39L707.05 263.91L703.06 261.649C723.099 258.006 726.964 242.287 725.284 222.428Z" fill="#2F2E41"/>
<path d="M753.757 237.439C756.294 240.392 760.265 241.54 763.848 243.077C770.171 245.851 775.723 250.126 780.02 255.53C784.318 260.935 787.233 267.306 788.511 274.091C789.502 279.618 789.372 285.34 790.937 290.728C792.492 296.116 796.344 301.402 801.871 302.337C805.611 302.976 809.36 301.532 812.878 300.106C814.813 299.329 816.748 298.548 818.683 297.764C816.665 292.7 814.65 287.636 812.638 282.572C815.871 287.351 819.632 291.751 823.849 295.69C830.783 292.894 837.723 290.098 844.67 287.302C827.58 287.367 830.496 270.777 826.673 254.131C824.571 244.984 806.675 238.791 803.167 230.088C801.271 225.368 798.062 221.29 793.921 218.336C789.779 215.383 784.878 213.678 779.798 213.422C774.718 213.167 769.671 214.373 765.254 216.897C760.838 219.42 757.237 223.156 754.877 227.663C751.369 229.061 751.267 234.523 753.757 237.439Z" fill="#2F2E41"/>
<path d="M257.31 397.692C256.47 396.629 255.871 395.396 255.555 394.079C255.239 392.761 255.212 391.391 255.478 390.062C255.743 388.733 256.294 387.478 257.092 386.383C257.89 385.289 258.917 384.38 260.101 383.721L255.22 337.35L267.714 332.846L273.108 387.965C274.07 390.04 274.236 392.395 273.577 394.585C272.917 396.775 271.477 398.647 269.53 399.846C267.582 401.045 265.263 401.488 263.011 401.091C260.758 400.694 258.73 399.485 257.31 397.692Z" fill="#FFB6B6"/>
<path d="M250.628 227.682C250.628 227.682 270.911 237.578 270.977 249.212C271.043 260.847 272.723 271.37 271.136 275.871C269.548 280.373 275.169 313.094 272.538 316.335C269.907 319.575 275.328 321.233 272.479 326.779C269.631 332.324 268.37 333.368 269.413 334.629C270.457 335.891 271.991 359.93 271.991 359.93L255.277 362.021L237.498 284.429L250.628 227.682Z" fill="#3F3D56"/>
<path d="M154.172 402.403C155.168 401.486 155.954 400.362 156.474 399.111C156.994 397.86 157.236 396.511 157.184 395.157C157.131 393.803 156.785 392.477 156.17 391.27C155.554 390.063 154.684 389.004 153.618 388.167L165.749 343.145L154.121 336.728L140.104 390.306C138.828 392.204 138.292 394.504 138.598 396.77C138.904 399.036 140.031 401.112 141.765 402.603C143.499 404.094 145.719 404.897 148.006 404.861C150.293 404.824 152.486 403.949 154.172 402.403H154.172Z" fill="#FFB6B6"/>
<path d="M187.575 235.572C187.575 235.572 165.986 242.147 164.086 253.625C162.187 265.104 158.869 275.23 159.726 279.926C160.584 284.621 149.874 316.047 151.961 319.662C154.049 323.276 148.434 324.059 150.373 329.985C152.311 335.91 153.392 337.14 152.162 338.22C150.933 339.301 145.628 362.799 145.628 362.799L161.803 367.498L191.594 293.68L187.575 235.572Z" fill="#3F3D56"/>
<path d="M270.487 603.829L284.887 603.828L291.738 548.284L270.485 548.285L270.487 603.829Z" fill="#FFB6B6"/>
<path d="M289.679 605.125V595.363L285.894 595.594L270.483 596.507L266.917 596.726L264.19 629.422L264.044 631.175H274.269L274.598 629.434L276.083 621.522L279.917 629.434L280.757 631.175H307.865C309.478 631.164 311.022 630.518 312.162 629.376C313.301 628.235 313.944 626.689 313.951 625.076C315.096 619.732 292.552 608.181 289.679 605.125Z" fill="#2F2E41"/>
<path d="M101.78 588.154L114.305 595.26L147.674 550.331L129.189 539.844L101.78 588.154Z" fill="#FFB6B6"/>
<path d="M117.839 598.747L122.647 590.263L119.263 588.595L105.399 581.79L102.185 580.208L86.3972 603.324L82.6846 608.753L86.8841 611.138L91.5706 613.804L97.9246 606.306L97.2186 617.006L119.361 629.58H119.373L120.797 630.383C122.203 631.178 123.867 631.382 125.424 630.95C126.98 630.519 128.302 629.488 129.099 628.083C132.726 623.993 118.825 602.837 117.839 598.747Z" fill="#2F2E41"/>
<path d="M199.024 331.175C167.107 332.322 155.891 462.449 165.637 464.81L120.154 549.574L184.893 578.594L227.46 430.792L234.554 485.183L225.095 571.5L266.941 581.619L295.885 579.552C288.364 476.664 269.586 368.15 254.024 326.175L199.024 331.175Z" fill="#2F2E41"/>
<path d="M184.372 340.299L184.162 341.089C204.562 352.439 218.493 350.011 240.793 343.141L257.072 339.719C260.626 335.085 257.73 330.553 253.793 326.141L263.552 245.869C263.536 243.288 262.989 240.738 261.946 238.378C260.903 236.017 259.386 233.896 257.489 232.146C255.592 230.396 253.356 229.055 250.919 228.206C248.482 227.356 245.896 227.017 243.322 227.209L228.662 216.349L207.792 217.069L193.832 232.489L185.492 235.469L179.012 237.779C177.702 238.959 176.272 240.319 174.902 241.819L185.152 302.819L189.512 321.059C183.668 327.723 180.448 334.227 184.372 340.299Z" fill="#3F3D56"/>
<path d="M65.974 621.1C58.4756 620.207 51.2713 617.651 44.8874 613.617C38.5034 609.584 33.1009 604.176 29.0746 597.787C23.8388 589.296 21.1371 579.212 18.5243 569.46C17.7636 566.622 16.9774 563.688 16.1449 560.859C15.2036 557.767 15.2095 554.465 16.1618 551.377C17.1141 548.289 18.9692 545.557 21.4882 543.532C23.9233 541.491 26.9138 540.226 30.0744 539.9C33.2351 539.574 36.4209 540.202 39.2216 541.702L39.8329 542.027L40.9042 566.105C42.4916 562.879 45.975 555.592 48.7347 548.316L48.9662 547.706L49.495 548.088C55.0434 552.074 60.0678 556.743 64.4496 561.985C72.1867 571.391 77.7827 582.369 80.8486 594.156C83.9146 605.943 84.3769 618.257 82.2035 630.24L82.0702 630.954L65.974 621.1Z" fill="#F2F2F2"/>
<path d="M5.26701e-06 630.778C-0.000460802 630.935 0.0300089 631.09 0.0896507 631.234C0.149292 631.379 0.236938 631.51 0.347539 631.621C0.45814 631.732 0.589511 631.819 0.734106 631.879C0.8787 631.938 1.03366 631.969 1.19007 631.968H843.48C843.796 631.968 844.098 631.843 844.322 631.62C844.545 631.397 844.67 631.094 844.67 630.778C844.67 630.463 844.545 630.16 844.322 629.937C844.098 629.714 843.796 629.588 843.48 629.588H1.19001C1.03361 629.588 0.878661 629.618 0.734075 629.678C0.58949 629.738 0.458118 629.825 0.347524 629.936C0.236931 630.047 0.149291 630.178 0.0896507 630.322C0.0300107 630.467 -0.000455455 630.622 5.26701e-06 630.778Z" fill="#CCCCCC"/>
<path d="M247.908 202.655L247.929 202.65C249.02 202.361 249.952 201.65 250.52 200.674C251.087 199.698 251.244 198.537 250.955 197.446L244.892 174.476C243.81 170.359 241.911 166.502 239.308 163.135C234.218 156.566 226.79 152.214 218.57 150.987C214.328 150.358 210.003 150.595 205.855 151.683C188.885 156.134 184.145 161.747 183.187 190.47C182.229 219.192 189.26 213.475 189.26 213.475C189.405 214.028 189.661 214.547 190.011 215C190.697 215.883 191.697 216.467 192.802 216.63C193.37 216.713 193.948 216.681 194.503 216.536C215.695 214.355 237.157 212.368 247.912 202.654L247.908 202.655Z" fill="#2F2E41"/>
<path d="M198.082 178.405C196.969 182.898 197.212 187.62 198.781 191.974C200.35 196.329 203.174 200.121 206.897 202.871C210.62 205.622 215.074 207.207 219.698 207.428C224.321 207.648 228.906 206.493 232.873 204.109C235.503 202.541 237.795 200.466 239.617 198.004C241.439 195.543 242.755 192.745 243.488 189.772C244.596 185.282 244.35 180.565 242.781 176.215C241.213 171.865 238.391 168.076 234.672 165.327C230.953 162.579 226.503 160.993 221.884 160.769C217.265 160.546 212.683 161.695 208.717 164.072C206.083 165.638 203.788 167.712 201.962 170.172C200.137 172.633 198.818 175.432 198.082 178.406L198.082 178.405Z" fill="#FFB6B6"/>
<path d="M252.671 174.422C251.814 171.166 250.312 168.116 248.254 165.453C245.33 158.163 240.743 152.271 231.856 155.848C228.522 155.355 225.124 155.538 221.863 156.386L217.259 157.576C217.208 157.59 217.156 157.603 217.104 157.617C210.676 159.318 205.187 163.503 201.844 169.251C198.502 175 197.579 181.84 199.28 188.269L199.402 188.729L209.138 186.201L210.009 176.06L213.122 185.168L218.151 183.864L218.59 178.749L220.16 183.34C229.696 187.045 240.748 183.37 252.788 174.884L252.671 174.422Z" fill="#2F2E41"/>
<path d="M230.333 206.52C230.682 207.223 230.826 208.009 230.749 208.789C230.713 209.188 230.621 209.579 230.476 209.952C230.351 210.27 230.19 210.573 229.994 210.853C229.414 211.681 228.558 212.274 227.58 212.528C227.519 212.544 227.458 212.558 227.396 212.571C227.335 212.584 227.273 212.596 227.21 212.607C227.147 212.618 227.084 212.627 227.021 212.635C226.958 212.642 226.894 212.649 226.83 212.654L223.213 212.938L215.777 204.035L218.233 213.339L201.793 214.657L191.371 175.174L217.714 168.355L217.263 169.283C215.774 172.387 215.169 175.843 215.517 179.269C215.885 182.734 216.845 186.111 218.355 189.253C219.857 192.438 221.661 195.472 223.743 198.312C225.573 200.832 227.546 203.245 229.653 205.538C229.925 205.832 230.154 206.163 230.333 206.52Z" fill="#2F2E41"/>
</g>
<defs>
<clipPath id="clip0_3_476">
<rect width="844.67" height="631.968" fill="white"/>
</clipPath>
</defs>
</svg>
